<svg width="25" height="24" viewBox="0 0 25 24" fill="none" xmlns="http://www.w3.org/2000/svg">
<path fill-rule="evenodd" clip-rule="evenodd" d="M9.08322 4.2834C8.61956 4.2834 8.17719 4.478 7.86389 4.81978L7.29164 5.44406H18.208L17.6358 4.81978C17.3225 4.478 16.8801 4.2834 16.4165 4.2834H9.08322ZM19.7919 7.24406H5.70782C5.57674 7.48488 5.50654 7.75647 5.50654 8.03486V16.896C5.50654 18.2797 6.62828 19.4014 8.01201 19.4014H17.4877C18.8714 19.4014 19.9931 18.2797 19.9931 16.896V8.03486C19.9931 7.75647 19.9229 7.48488 19.7919 7.24406ZM4.54919 5.77408C4.0064 6.40102 3.70654 7.20341 3.70654 8.03486V16.896C3.70654 19.2738 5.63417 21.2014 8.01201 21.2014H17.4877C19.8655 21.2014 21.7931 19.2738 21.7931 16.896V8.03486C21.7931 7.17067 21.4692 6.33788 20.8852 5.70084L18.9627 3.60348C18.3084 2.88976 17.3847 2.4834 16.4165 2.4834H9.08322C8.11501 2.4834 7.19125 2.88976 6.53701 3.60348L4.61444 5.70084C4.60735 5.70856 4.60031 5.71632 4.5933 5.72411C4.578 5.74021 4.56328 5.75688 4.54919 5.77408ZM12.7498 9.34206C13.2469 9.34206 13.6498 9.74501 13.6498 10.2421V14.5402L15.0025 13.249C15.3621 12.9058 15.9318 12.919 16.275 13.2786C16.6182 13.6381 16.6049 14.2078 16.2454 14.551L13.3713 17.2945C13.0235 17.6265 12.4762 17.6265 12.1284 17.2945L9.25431 14.551C8.89476 14.2078 8.88151 13.6381 9.22472 13.2786C9.56792 12.919 10.1376 12.9058 10.4972 13.249L11.8498 14.5402V10.2421C11.8498 9.74501 12.2528 9.34206 12.7498 9.34206Z" fill="#121212" fill-opacity="0.3"/>
</svg>
