<svg width="25" height="24" viewBox="0 0 25 24" fill="none" xmlns="http://www.w3.org/2000/svg">
<path d="M13.9473 2.39557C15.0339 2.10704 16.1773 2.11248 17.2617 2.40924C17.5146 2.47596 17.7462 2.60767 17.9316 2.79205C18.117 2.9764 18.2502 3.20667 18.3183 3.45904C18.3864 3.71129 18.3876 3.97709 18.3203 4.22955C18.2529 4.48223 18.1195 4.71356 17.9346 4.8985L15.5723 7.25982L15.9209 8.3067L16.9678 8.65631L19.3301 6.294C19.5151 6.10911 19.7463 5.97562 19.999 5.90826C20.2516 5.841 20.5181 5.84196 20.7705 5.91021L20.7695 5.91705C21.0155 5.98651 21.2395 6.11848 21.4199 6.29986C21.6042 6.48521 21.7369 6.71612 21.8037 6.96881C22.3655 9.0949 21.844 11.4749 20.1582 13.1583L20.1572 13.1573C19.378 13.9381 18.411 14.505 17.3486 14.8018C16.2859 15.0986 15.164 15.1159 14.0928 14.8516L8.13964 20.8057V20.8067C7.51298 21.4317 6.66341 21.7823 5.77832 21.7823C4.89342 21.7822 4.04454 21.4315 3.41797 20.8067L3.41699 20.8057C2.79216 20.1791 2.44149 19.3302 2.44141 18.4454C2.44144 17.5603 2.79198 16.7107 3.41699 16.084H3.41797L9.37109 10.1299C9.10824 9.05662 9.12699 7.93335 9.4248 6.8692C9.72274 5.80488 10.2902 4.83475 11.0723 4.05377C11.8669 3.25679 12.8595 2.68447 13.9473 2.39557ZM4.61621 21.252C4.87982 21.361 5.15901 21.4314 5.44531 21.4629C5.15899 21.4314 4.87985 21.361 4.61621 21.252ZM15.3476 3.99029L15.3467 3.99127C14.2443 4.03589 13.1529 4.48101 12.3057 5.32818C11.6553 5.98408 11.2124 6.81739 11.0342 7.72369L11.0351 7.72467C10.9248 8.30032 10.9232 8.8911 11.0303 9.46588L11.083 9.71099L11.1211 9.91998C11.1858 10.413 11.0684 10.9433 10.6885 11.3233L4.65722 17.3545C4.3678 17.6472 4.20521 18.0425 4.20508 18.4541C4.20508 18.8655 4.36728 19.2611 4.65625 19.5538C5.26357 20.1591 6.25323 20.1586 6.85644 19.5547H6.85742L12.8906 13.5215C13.3294 13.0903 13.9557 12.9968 14.501 13.129L14.793 13.1905C15.4774 13.3119 16.1817 13.2779 16.8535 13.0899C17.5208 12.9031 18.1355 12.5687 18.6553 12.1143L18.875 11.8965C19.6865 11.0865 20.1638 10.0002 20.2119 8.85455L20.2139 8.49322C20.2082 8.31328 20.1889 8.13426 20.1631 7.95611L18.0674 10.0528C17.8733 10.2486 17.6286 10.3866 17.3603 10.4502C17.0919 10.5139 16.8113 10.5001 16.5498 10.4122V10.4131L15.1846 9.95806C14.7408 9.81062 14.3927 9.46264 14.2441 9.01861V9.01763L13.7891 7.6524C13.7029 7.39116 13.6905 7.1105 13.7539 6.84283C13.8175 6.57504 13.9549 6.32958 14.1494 6.13482L16.2441 4.03912C15.9477 3.99629 15.6477 3.9772 15.3476 3.99029ZM3.37402 16.5928C3.2711 16.7268 3.17746 16.8667 3.09863 17.0147C3.17748 16.8667 3.27108 16.7268 3.37402 16.5928ZM16.9502 13.3741C17.1489 13.3177 17.3432 13.2492 17.5322 13.169C17.3432 13.2492 17.1489 13.3177 16.9502 13.3741ZM19.9043 11.0254C19.7975 11.2178 19.6774 11.4031 19.5449 11.5801C19.6774 11.4031 19.7976 11.2178 19.9043 11.0254ZM14.5283 8.92291C14.5666 9.0375 14.6226 9.14351 14.6914 9.23931C14.6229 9.14374 14.5666 9.03827 14.5283 8.92388V8.92291ZM21.6015 7.42877C21.6524 7.68567 21.6878 7.94531 21.706 8.20611C21.6878 7.9453 21.6524 7.68569 21.6015 7.42877ZM10.7402 7.669C10.7235 7.75627 10.7093 7.84388 10.6973 7.9317L10.7402 7.66803C10.7475 7.63089 10.7585 7.59458 10.7666 7.55767C10.7584 7.59477 10.7475 7.63166 10.7402 7.669ZM9.71386 6.94928C9.64282 7.20307 9.58846 7.46053 9.55078 7.71978L9.62011 7.33306C9.64727 7.20474 9.67838 7.07703 9.71386 6.95025C9.74933 6.82356 9.78865 6.69798 9.83203 6.57428V6.5733C9.7886 6.69706 9.74936 6.82251 9.71386 6.94928ZM21.207 6.51178C21.2805 6.58569 21.3441 6.66822 21.3955 6.75787L21.3096 6.62799C21.2781 6.58683 21.2437 6.54772 21.207 6.5108V6.51178ZM11.2275 6.29205C11.1966 6.35046 11.1702 6.41116 11.1416 6.47076C11.223 6.30121 11.3111 6.135 11.4111 5.97564L11.2275 6.29205ZM20.2295 6.16803C20.1779 6.1747 20.1267 6.18484 20.0762 6.1983C20.0258 6.21171 19.9765 6.22831 19.9287 6.2481C19.9764 6.22841 20.0259 6.21266 20.0762 6.19928C20.2778 6.14556 20.49 6.14489 20.6914 6.19928C20.5907 6.17208 20.4872 6.15841 20.3838 6.15826C20.3323 6.15817 20.2807 6.16141 20.2295 6.16803ZM18.0127 4.20318C18.0023 4.23607 17.9927 4.26909 17.9795 4.30084C17.9926 4.26909 18.0023 4.23608 18.0127 4.20318ZM15.335 3.69147C14.8944 3.70927 14.4554 3.78696 14.0312 3.92486C14.1726 3.87893 14.3158 3.84027 14.46 3.80768C14.6764 3.7587 14.8952 3.72404 15.1152 3.70514C15.1884 3.69886 15.2617 3.69443 15.335 3.69147C15.4629 3.68588 15.591 3.68552 15.7187 3.68951C15.591 3.68547 15.4629 3.68588 15.335 3.69147Z" fill="#086BD7"/>
</svg>
