<svg width="25" height="24" viewBox="0 0 25 24" fill="none" xmlns="http://www.w3.org/2000/svg">
<path fill-rule="evenodd" clip-rule="evenodd" d="M8.7475 5.12666C7.41276 5.12666 6.29631 6.23906 6.29631 7.65421C6.29631 9.06937 7.41276 10.1818 8.7475 10.1818C10.0822 10.1818 11.1987 9.06937 11.1987 7.65421C11.1987 6.23906 10.0822 5.12666 8.7475 5.12666ZM4.49631 7.65421C4.49631 5.2834 6.38062 3.32666 8.7475 3.32666C11.1144 3.32666 12.9987 5.2834 12.9987 7.65421C12.9987 10.025 11.1144 11.9818 8.7475 11.9818C6.38062 11.9818 4.49631 10.025 4.49631 7.65421ZM16.9966 7.98158C16.2308 7.98158 15.5736 8.62345 15.5736 9.46068C15.5736 10.2979 16.2308 10.9398 16.9966 10.9398C17.7625 10.9398 18.4197 10.2979 18.4197 9.46068C18.4197 8.62345 17.7625 7.98158 16.9966 7.98158ZM13.7736 9.46068C13.7736 7.67003 15.1965 6.18158 16.9966 6.18158C18.7968 6.18158 20.2197 7.67003 20.2197 9.46068C20.2197 11.2513 18.7968 12.7398 16.9966 12.7398C15.1965 12.7398 13.7736 11.2513 13.7736 9.46068ZM4.50921 17.4364C3.71079 18.1735 3.40893 19.0375 3.35976 19.5405C3.31139 20.0352 2.87115 20.397 2.37645 20.3486C1.88176 20.3003 1.51993 19.86 1.5683 19.3653C1.65876 18.4401 2.1528 17.162 3.2883 16.1138C4.44359 15.0474 6.20739 14.2685 8.7475 14.2685C11.2876 14.2685 13.0514 15.0474 14.2067 16.1138C15.3422 17.162 15.8362 18.4401 15.9267 19.3653C15.9751 19.86 15.6132 20.3003 15.1185 20.3486C14.6238 20.397 14.1836 20.0352 14.1352 19.5405C14.0861 19.0375 13.7842 18.1735 12.9858 17.4364C12.2072 16.7177 10.899 16.0685 8.7475 16.0685C6.59595 16.0685 5.28783 16.7177 4.50921 17.4364ZM15.8531 15.1685C15.8531 14.6714 16.256 14.2685 16.7531 14.2685C19.2932 14.2685 21.057 15.0474 22.2123 16.1138C23.3478 17.162 23.8418 18.4401 23.9323 19.3653C23.9807 19.86 23.6188 20.3003 23.1241 20.3486C22.6294 20.397 22.1892 20.0352 22.1408 19.5405C22.0917 19.0375 21.7898 18.1735 20.9914 17.4364C20.2128 16.7177 18.9046 16.0685 16.7531 16.0685C16.256 16.0685 15.8531 15.6655 15.8531 15.1685Z" fill="#121212" fill-opacity="0.3"/>
</svg>
