<svg width="25" height="24" viewBox="0 0 25 24" fill="none" xmlns="http://www.w3.org/2000/svg">
<path d="M23.5066 0.75C23.9209 0.75 24.2567 1.08579 24.2567 1.5C24.2567 1.91421 23.9209 2.25 23.5066 2.25H21.7976C21.618 2.25008 21.4443 2.31451 21.3083 2.43164C21.1722 2.5488 21.083 2.71114 21.0563 2.88867L19.1919 15.334V15.335C19.1117 15.8682 18.8422 16.3546 18.4331 16.7061C18.0243 17.0574 17.5033 17.2506 16.9643 17.25H1.00541C0.591176 17.25 0.255371 16.9142 0.255371 16.5C0.255371 16.0858 0.591176 15.75 1.00541 15.75H16.9653C17.1451 15.7503 17.3191 15.6856 17.4555 15.5684C17.5919 15.4512 17.6817 15.2891 17.7085 15.1113L19.5728 2.66504C19.653 2.13252 19.9216 1.64632 20.3297 1.29492C20.7379 0.943463 21.2589 0.750119 21.7976 0.75H23.5066Z" fill="#121212" fill-opacity="0.3"/>
<path d="M5.50557 20.625C5.50557 20.3266 5.38744 20.0401 5.17645 19.8291C4.96546 19.6181 4.6789 19.5 4.38051 19.5C4.08213 19.5 3.79556 19.6181 3.58457 19.8291C3.37358 20.0401 3.25545 20.3266 3.25545 20.625C3.25545 20.9234 3.37358 21.2099 3.58457 21.4209C3.79556 21.6319 4.08213 21.75 4.38051 21.75C4.6789 21.75 4.96546 21.6319 5.17645 21.4209C5.38744 21.2099 5.50557 20.9234 5.50557 20.625ZM16.0061 20.625C16.0061 20.3266 15.888 20.0401 15.677 19.8291C15.466 19.6181 15.1795 19.5 14.8811 19.5C14.5827 19.5 14.2961 19.6181 14.0851 19.8291C13.8742 20.0401 13.756 20.3266 13.756 20.625C13.756 20.9234 13.8742 21.2099 14.0851 21.4209C14.2961 21.6319 14.5827 21.75 14.8811 21.75C15.1795 21.75 15.466 21.6319 15.677 21.4209C15.888 21.2099 16.0061 20.9234 16.0061 20.625ZM15.2561 3.75V4.23828C15.2562 3.75 15.2558 3.75 15.2561 3.75H15.2708C15.2762 3.75009 15.2824 3.75075 15.2893 3.75098C15.3036 3.75145 15.3217 3.75148 15.342 3.75293C15.3824 3.75582 15.4351 3.76129 15.4963 3.77148C15.6157 3.79138 15.7864 3.83309 15.9661 3.92285C16.1488 4.01421 16.3548 4.16312 16.513 4.40039C16.6743 4.64236 16.7562 4.93126 16.7562 5.25V12.7646C16.7561 12.7701 16.7554 12.7763 16.7552 12.7832C16.7547 12.7975 16.7547 12.8156 16.7533 12.8359C16.7504 12.8763 16.7449 12.929 16.7347 12.9902C16.7148 13.1096 16.6731 13.2803 16.5833 13.46C16.492 13.6427 16.343 13.8487 16.1058 14.0068C15.8638 14.1681 15.5749 14.25 15.2561 14.25H9.24113C9.2357 14.2499 9.2295 14.2493 9.22257 14.249C9.20823 14.2485 9.19019 14.2485 9.16983 14.2471C9.12949 14.2442 9.07677 14.2387 9.01553 14.2285C8.89618 14.2086 8.72543 14.1669 8.54578 14.0771C8.53599 14.0723 8.52639 14.0658 8.51648 14.0605C8.29371 14.1859 8.03644 14.25 7.7557 14.25H3.25545V13.5C3.25545 14.25 3.25582 14.25 3.25545 14.25H3.2408C3.23537 14.2499 3.22918 14.2493 3.22225 14.249C3.20791 14.2485 3.18986 14.2485 3.16951 14.2471C3.12916 14.2442 3.07644 14.2387 3.0152 14.2285C2.89585 14.2086 2.72511 14.1669 2.54545 14.0771C2.36272 13.9858 2.15674 13.8369 1.99855 13.5996C1.83723 13.3576 1.75537 13.0687 1.75537 12.75V8.25H2.50541C1.75537 8.25 1.75537 8.25037 1.75537 8.25V8.23535C1.75546 8.22992 1.75612 8.22373 1.75635 8.2168C1.75683 8.20246 1.75685 8.18441 1.7583 8.16406C1.76119 8.12372 1.76666 8.071 1.77686 8.00977C1.79675 7.89042 1.83847 7.71968 1.92823 7.54004C2.0196 7.35732 2.16851 7.15134 2.4058 6.99316C2.64778 6.83185 2.9367 6.75 3.25545 6.75H7.7557V5.25H8.50574C7.7557 5.25 7.7557 5.25037 7.7557 5.25V5.23535C7.75579 5.22992 7.75644 5.22373 7.75667 5.2168C7.75715 5.20246 7.75717 5.18441 7.75863 5.16406C7.76151 5.12372 7.76699 5.071 7.77718 5.00977C7.79707 4.89042 7.83879 4.71968 7.92856 4.54004C8.01992 4.35732 8.16884 4.15134 8.40612 3.99316C8.6481 3.83185 8.93702 3.75 9.25578 3.75H15.2561ZM9.25773 5.25586C9.25626 5.26468 9.25582 5.27092 9.25578 5.27148V12.7461C9.25774 12.7465 9.25958 12.7477 9.26164 12.748C9.27046 12.7495 9.27669 12.75 9.27726 12.75H15.2522C15.2526 12.748 15.2538 12.7462 15.2541 12.7441C15.2556 12.7353 15.2561 12.7291 15.2561 12.7285V5.25293C15.2542 5.25256 15.2522 5.25229 15.2502 5.25195C15.2414 5.25048 15.2352 5.25004 15.2346 5.25H9.25968C9.2593 5.25197 9.25808 5.2538 9.25773 5.25586ZM3.25741 8.25586C3.25594 8.26468 3.25549 8.27092 3.25545 8.27148V12.7461C3.25742 12.7465 3.25926 12.7477 3.26131 12.748C3.27013 12.7495 3.27637 12.75 3.27694 12.75H7.75179C7.75217 12.748 7.7534 12.7462 7.75374 12.7441C7.75521 12.7353 7.75566 12.7291 7.7557 12.7285V8.25293C7.75379 8.25256 7.75183 8.25229 7.74984 8.25195C7.74102 8.25048 7.73478 8.25004 7.73421 8.25H3.25936C3.25898 8.25197 3.25775 8.2538 3.25741 8.25586ZM7.00566 20.625C7.00566 21.3212 6.72937 21.9892 6.23706 22.4814C5.74475 22.9737 5.07674 23.25 4.38051 23.25C3.68428 23.25 3.01628 22.9737 2.52397 22.4814C2.03166 21.9892 1.75537 21.3212 1.75537 20.625C1.75537 19.9288 2.03166 19.2608 2.52397 18.7686C3.01628 18.2763 3.68428 18 4.38051 18C5.07674 18 5.74475 18.2763 6.23706 18.7686C6.72937 19.2608 7.00566 19.9288 7.00566 20.625ZM17.5062 20.625C17.5062 21.3212 17.2299 21.9892 16.7376 22.4814C16.2453 22.9737 15.5773 23.25 14.8811 23.25C14.1848 23.25 13.5168 22.9737 13.0245 22.4814C12.5322 21.9892 12.2559 21.3212 12.2559 20.625C12.2559 19.9288 12.5322 19.2608 13.0245 18.7686C13.5168 18.2763 14.1848 18 14.8811 18C15.5773 18 16.2453 18.2763 16.7376 18.7686C17.2299 19.2608 17.5062 19.9288 17.5062 20.625Z" fill="#121212" fill-opacity="0.3"/>
</svg>
